<svg width="112" height="84" viewBox="0 0 112 84" fill="none" xmlns="http://www.w3.org/2000/svg">
<path d="M13.9219 64.813V69.4528L111.537 69.5696V83.1624L0.859131 83.3961V64.825C0.858755 62.3746 1.32043 59.948 2.21778 57.684C3.11514 55.42 4.4306 53.3628 6.08904 51.6299C7.74749 49.8971 9.71643 48.5225 11.8834 47.5846C14.0504 46.6468 16.373 46.1641 18.7186 46.1641H98.2535V36.9564H58.3169V18.8466C58.3169 13.8482 60.2175 9.05448 63.6007 5.52005C66.9839 1.98562 71.5725 0 76.357 0H111.531V13.8414H75.9785C74.8012 13.8414 73.672 14.3299 72.8391 15.1993C72.0063 16.0688 71.5381 17.2482 71.5373 18.4782V23.127H111.531V60.1763H18.3488C17.1736 60.1794 16.0477 60.6693 15.2178 61.5386C14.3879 62.4078 13.9219 63.5854 13.9219 64.813Z" fill="#1E2C90"/>
<path d="M28.5286 24.8845L30.4066 26.1215C33.2342 27.9853 35.6433 30.4804 37.4656 33.4325L38.9294 35.7924L40.0341 33.9852C42.0249 30.7228 44.6757 27.9699 47.7946 25.9256L49.3661 24.8962L47.2505 23.434C44.2408 21.3577 41.6959 18.61 39.7938 15.3833L38.9653 13.9591L38.087 15.4886C36.125 18.8979 33.4143 21.7551 30.1856 23.8171L28.5286 24.8845Z" fill="#1E2C90"/>
</svg>
